<svg xmlns="http://www.w3.org/2000/svg" viewBox="-12.058 -7.197 12 12" width="12" height="12"><path d="M-.478-1.162c0 3.073-2.424 5.517-5.492 5.517a5.491 5.491 0 0 1-5.508-5.517c0-3.038 2.457-5.483 5.508-5.483A5.459 5.459 0 0 1-.478-1.162zM-8.631.247a8.773 8.773 0 0 1-.051-2.292c-.78-.152-1.237-.271-1.593-.424a4.776 4.776 0 0 0-.187 1.307c0 .22 0 .441.034.628.22.255.78.594 1.797.781zm.932 2.733c-.39-.543-.644-1.24-.813-2.054-.679-.153-1.288-.34-1.695-.56.254.628.576 1.187 1.067 1.646.407.44.916.747 1.441.967zm-2.321-6.043c.152.136.406.153 1.406.424.186-1.086.509-1.985 1.017-2.665-.576.272-1.085.51-1.542 1.002-.39.356-.678.798-.881 1.239zm2 3.429a11.68 11.68 0 0 0 1.71.17v-2.394c-.61-.017-1.22-.05-1.796-.119 0 .306-.016.56-.016.866 0 .493.034 1.019.102 1.477zm0-2.92c.559.05 1.135.085 1.71.102V-5.61h-.033c-.763.306-1.406 1.494-1.678 3.055zm1.71 5.874V1.13a23.323 23.323 0 0 1-1.56-.102c.103.441.255.832.459 1.188.254.611.643 1.104 1.101 1.104zm.644-8.928v3.157a28.657 28.657 0 0 0 1.728-.102c-.22-1.223-.71-2.292-1.288-2.818-.152-.102-.321-.238-.44-.238zM-3.953.383c.085-.458.102-.985.102-1.494 0-.305 0-.56-.017-.849a28.32 28.32 0 0 1-1.797.103V.537A13.966 13.966 0 0 0-3.952.384zm-.136.645c-.525.05-1.05.085-1.576.102v2.19c.882 0 1.356-1.528 1.576-2.292zm-.27-6.349c.508.662.83 1.596 1 2.7.914-.17 1.288-.323 1.423-.425-.475-1.052-1.374-1.902-2.424-2.275zM-1.8.434c-.441.203-1.018.373-1.644.509-.187.814-.424 1.476-.831 2.037.525-.221 1.051-.527 1.457-.968.475-.442.797-.985 1.018-1.579zm-1.441-1.545c0 .458-.034.95-.085 1.375 1.763-.289 1.83-.696 1.83-1.426 0-.424-.067-.883-.203-1.29a5.6 5.6 0 0 1-1.576.407c.034.323.034.594.034.934z"/></svg>