<svg xmlns="http://www.w3.org/2000/svg" width="12" height="12"><path d="M10.687 3.533c.01-.504-.1-1.014-.19-1.517a2.891 2.891 0 0 0-.156-.503.28.28 0 0 0-.31-.175 2.143 2.143 0 0 0-.228.058c-.748.246-1.44.606-2.106 1.024a.573.573 0 0 1-.327.069c-.259-.02-.514-.084-.772-.096a8.666 8.666 0 0 0-1.91.1.42.42 0 0 1-.276-.047c-.726-.47-1.48-.871-2.33-1.097-.127-.034-.259-.016-.29.035a.376.376 0 0 0-.048.098c-.092.322-.2.642-.254.972-.063.393-.125.797-.094 1.19.019.246-.05.398-.184.571-.452.58-.656 1.248-.668 1.98-.01.627.072 1.237.263 1.835.292.918.856 1.606 1.705 2.054.698.368 1.459.51 2.237.537.702.025 1.405.004 2.108.008.704.004 1.399-.059 2.072-.278.674-.22 1.258-.574 1.71-1.132.654-.805.858-1.753.9-2.757.032-.768-.125-1.49-.574-2.118-.182-.254-.285-.473-.278-.81zM9.332 9.415c-.302.262-.672.385-1.05.475-.741.178-1.496.222-2.254.189a8.093 8.093 0 0 1-2.218-.186c-.537-.126-1.028-.339-1.37-.8-.544-.734-.683-2.132.216-2.894a1.32 1.32 0 0 1 .787-.337c.334-.021.668-.063 1-.059.842.01 1.682.052 2.522.058.384.003.771-.086 1.152-.063.346.02.71.084 1.025.224.524.232.806.703.891 1.255.127.82-.04 1.567-.701 2.139z"/><ellipse cx="7.962" cy="7.816" rx=".801" ry="1.071"/><ellipse cx="4.139" cy="7.816" rx=".801" ry="1.071"/></svg>