<svg xmlns="http://www.w3.org/2000/svg" width="12" height="12"><path d="M5.212 10.679a.477.477 0 0 1-.477.476.48.48 0 0 1-.48-.476c0-.263.21-.477.473-.477.261 0 .472.217.472.48m2.953 0a.483.483 0 0 1-.48.48.475.475 0 0 1-.477-.473c0-.262.21-.473.475-.473s.475.219.475.48"/><path d="M10.437 6.103L10.36 6c-.023-.03-.048-.059-.072-.087l-.07-.09a7.928 7.928 0 0 0-.16-.18l-.037-.045-.045-.053-.068-.067-.022-.031a5.395 5.395 0 0 0-1.972-1.251l-.112-.042.023-.039a2.015 2.015 0 0 0-.06-1.627A2.035 2.035 0 0 0 6.55 1.41c-.329-.108-.614-.16-.854-.152-.015-.053-.048-.29.248-.922L5.32 0l-.144.2c-.165.229-.324.448-.472.665a.927.927 0 0 0-.622-.29L3.385.53h-.058a.937.937 0 0 0-.935.876l-.044.7v.002a.938.938 0 0 0 .877.99l.502.03c-.033.419.035.81.202 1.152a5.593 5.593 0 0 0-1.828 1.236C.449 7.188.449 9.017.449 10.486v.889l.652-.696c.131.464.325.902.57 1.307h.85a4.563 4.563 0 0 1-.84-1.92l.956-1.011-.492 1.544.87-.63c1.536-1.117 3.37-1.372 5.45-.764.903.27 1.78.022 2.236-.63l.052-.082c.044.255.07.502.07.75 0 .78-.128 1.843-.69 2.757h.81c.389-.779.592-1.716.592-2.751 0-1.1-.39-2.21-1.087-3.136zm-6-3.01c.06-.499.288-.973.613-1.483a.679.679 0 0 0 .642.374c.109-.003.303.013.616.116.357.119.643.372.804.712a1.355 1.355 0 0 1-.363 1.63l-.204-.252h-.001a.73.73 0 0 0-1.295.428c-.6-.27-.9-.817-.814-1.514zm2.15 2.554l-.26.212a.115.115 0 0 1-.16-.016l-.06-.067a.115.115 0 0 1 .015-.168l.255-.21-.532-.648a.155.155 0 0 1 .021-.218.148.148 0 0 1 .099-.035c.044 0 .09.015.12.052l1.483 1.822a.155.155 0 0 1-.022.217c-.022.014-.045.022-.067.03H7.44a.156.156 0 0 1-.12-.06l-.135-.173-.524.428a.142.142 0 0 1-.076.024.117.117 0 0 1-.089-.045l-.24-.29a.123.123 0 0 1 .022-.168l.525-.429-.218-.265zm-2.72-3.215l-.598-.037a.231.231 0 0 1-.218-.245l.046-.7a.23.23 0 0 1 .229-.218h.007l.699.045a.232.232 0 0 1 .157.077.267.267 0 0 1 .06.168l-.008.05a4.663 4.663 0 0 0-.39.859zm6.258 5.737c-.283.401-.843.539-1.461.358-1.942-.57-3.695-.452-5.23.35l.817-2.56-2.645 2.804a4.617 4.617 0 0 1 2.877-4.153 2.387 2.387 0 0 0 1.077.47.69.69 0 0 0 .105.704l.037.045a.694.694 0 0 0 .106.687l.232.29a.698.698 0 0 0 .982.098l.142-.115a.69.69 0 0 0 .284.056c.053 0 .105 0 .165-.014a.71.71 0 0 0 .292-.142.734.734 0 0 0 .105-1.027l-.824-1.036c.072-.054.14-.12.203-.187.068.02.136.038.201.06.133.05.266.098.397.158.502.225.977.55 1.385.949l.044.045.09.09.055.06.12.134.065.077c.022.027.043.051.065.082l.06.074.06.078c.42.577.494 1.17.202 1.582z"/><path d="M3.85 2.055l-.418-.024.026-.416.416.025z"/></svg>