<svg xmlns="http://www.w3.org/2000/svg" width="12" height="12"><path d="M5.315 10.325a.437.437 0 0 1-.437.436.44.44 0 0 1-.44-.436c0-.241.193-.437.433-.437s.433.199.433.44m2.707 0c0 .24-.2.439-.44.439a.435.435 0 0 1-.437-.433c0-.24.192-.433.435-.433s.436.2.436.44"/><path d="M10.105 6.13l-.071-.093c-.021-.028-.044-.054-.066-.08l-.064-.083a7.267 7.267 0 0 0-.147-.165l-.034-.041-.041-.048-.062-.062-.02-.028a4.945 4.945 0 0 0-1.808-1.147l-.103-.038.021-.036a1.847 1.847 0 0 0-.055-1.491 1.865 1.865 0 0 0-1.113-.99c-.302-.099-.563-.147-.783-.14-.014-.048-.044-.266.227-.845L5.415.536 5.283.72c-.151.209-.297.41-.433.609a.85.85 0 0 0-.57-.266l-.64-.04h-.005l-.048-.001a.859.859 0 0 0-.857.804l-.04.642v.001a.86.86 0 0 0 .804.907l.46.028c-.03.384.032.742.185 1.056a5.127 5.127 0 0 0-1.676 1.133C.949 7.125.949 8.802.949 10.148v.815l.598-.638c.12.425.298.827.523 1.198h.778a4.183 4.183 0 0 1-.77-1.76l.877-.927-.451 1.416.797-.577C4.709 8.65 6.39 8.417 8.297 8.974c.828.247 1.631.02 2.05-.577l.047-.076c.041.234.064.46.064.687 0 .715-.117 1.69-.632 2.528h.742c.357-.714.543-1.573.543-2.522 0-1.008-.357-2.025-.996-2.874zM4.604 3.372c.056-.458.265-.893.563-1.36a.622.622 0 0 0 .588.343c.1-.003.278.012.565.106.327.109.589.341.737.653a1.242 1.242 0 0 1-.333 1.493l-.187-.23-.001-.001a.669.669 0 0 0-1.187.393c-.55-.247-.825-.749-.746-1.388zm1.972 2.34l-.238.195a.105.105 0 0 1-.148-.015l-.055-.061a.105.105 0 0 1 .014-.154l.234-.192-.488-.595a.142.142 0 0 1 .02-.2.136.136 0 0 1 .09-.032c.041 0 .082.014.11.048l1.36 1.67a.142.142 0 0 1-.02.199c-.021.013-.042.02-.062.027h-.035a.143.143 0 0 1-.11-.055l-.123-.158-.481.392a.13.13 0 0 1-.069.022.107.107 0 0 1-.082-.041l-.22-.266a.113.113 0 0 1 .02-.154l.481-.393-.199-.243zM4.082 2.765l-.548-.034a.212.212 0 0 1-.2-.224l.042-.642a.211.211 0 0 1 .21-.2h.007l.64.042a.213.213 0 0 1 .144.07.245.245 0 0 1 .055.154l-.007.046c-.151.26-.268.52-.358.787zm5.737 5.259c-.26.368-.773.494-1.34.328-1.78-.522-3.387-.414-4.794.322l.749-2.347-2.424 2.57A4.232 4.232 0 0 1 4.647 5.09a2.188 2.188 0 0 0 .987.431.632.632 0 0 0 .096.645l.034.041a.636.636 0 0 0 .097.63l.213.266a.64.64 0 0 0 .9.09l.13-.106a.633.633 0 0 0 .261.052c.048 0 .096 0 .151-.013a.651.651 0 0 0 .268-.13.673.673 0 0 0 .096-.942l-.755-.949c.066-.05.128-.11.186-.172.062.019.124.035.184.055.122.046.244.09.364.145.46.206.895.505 1.269.87l.041.041.083.083.05.055.11.123.059.07c.02.025.04.047.06.075l.055.068.055.072c.384.529.453 1.072.185 1.45z"/><path d="M4.066 2.42l-.383-.022.024-.382.382.023z"/></svg>