<?xml version="1.0" encoding="UTF-8" standalone="no"?>
<svg
   xmlns:dc="http://purl.org/dc/elements/1.1/"
   xmlns:cc="http://creativecommons.org/ns#"
   xmlns:rdf="http://www.w3.org/1999/02/22-rdf-syntax-ns#"
   xmlns:svg="http://www.w3.org/2000/svg"
   xmlns="http://www.w3.org/2000/svg"
   xmlns:sodipodi="http://sodipodi.sourceforge.net/DTD/sodipodi-0.dtd"
   xmlns:inkscape="http://www.inkscape.org/namespaces/inkscape"
   version="1.1"
   x="0px"
   y="0px"
   viewBox="0 0 32 32"
   enable-background="new 0 0 100 100"
   xml:space="preserve"
   id="svg104"
   sodipodi:docname="proven.svg"
   width="32"
   height="32"
   inkscape:version="0.92.2 (5c3e80d, 2017-08-06)"><metadata
     id="metadata110"><rdf:RDF><cc:Work
         rdf:about=""><dc:format>image/svg+xml</dc:format><dc:type
           rdf:resource="http://purl.org/dc/dcmitype/StillImage" /><dc:title /></cc:Work></rdf:RDF></metadata><defs
     id="defs108" /><sodipodi:namedview
     pagecolor="#ffffff"
     bordercolor="#666666"
     borderopacity="1"
     objecttolerance="10"
     gridtolerance="10"
     guidetolerance="10"
     inkscape:pageopacity="0"
     inkscape:pageshadow="2"
     inkscape:window-width="1920"
     inkscape:window-height="995"
     id="namedview106"
     showgrid="false"
     inkscape:zoom="128"
     inkscape:cx="10.651185"
     inkscape:cy="19.876709"
     inkscape:window-x="0"
     inkscape:window-y="0"
     inkscape:window-maximized="1"
     inkscape:current-layer="svg104" /><path
     d="M 20.962893,3.677421 C 19.481451,3.195251 17.543899,5.50796 16.017184,5.508495 14.47567,5.508812 12.540203,3.200041 11.073503,3.67283 9.6204053,4.141441 9.4003563,7.139023 8.1383493,8.052147 6.9188853,8.934648 3.9942818,8.192661 3.0615156,9.473578 2.1289594,10.754207 3.7326157,13.310181 3.2669534,14.74117 2.7847858,16.222619 -5.3352334e-4,17.352148 7.6658454e-8,18.878868 3.1477666e-4,20.420391 2.7917072,21.553765 3.2644933,23.020472 c 0.4684008,1.453395 -1.1379274,4.007305 -0.2243108,5.269239 0.8824192,1.218979 3.3329008,-0.115109 4.2951018,1.143401 1.609106,0 16.0414257,0.02688 17.5760757,0.02688 1.218472,-0.882344 3.094358,0.138348 4.027124,-1.14257 C 29.87104,27.036793 28.267385,24.48082 28.733046,23.049829 29.215213,21.568381 32.000533,20.438851 32,18.912132 31.999682,17.370609 29.208292,16.237234 28.735218,14.770318 28.266818,13.316924 29.873146,10.763013 28.95953,9.501079 28.07711,8.282104 25.163722,9.00202 23.883101,8.069456 22.602687,7.136608 22.393876,4.143078 20.962893,3.677413 Z"
     id="path102"
     inkscape:connector-curvature="0"
     style="fill:#33a0ff;fill-opacity:1;stroke-width:0.3556788"
     sodipodi:nodetypes="ccccsccccccscccccc" /><path
     d="m 14.32017,26.309641 a 0.90382976,0.90383454 0 0 1 -0.903829,0.901766 0.9100345,0.91003931 0 0 1 -0.910035,-0.901766 c 0,-0.498452 0.399174,-0.903834 0.895557,-0.903834 0.496382,0 0.895557,0.411587 0.895557,0.910039 m 5.59878,0 c 0,0.496386 -0.413652,0.907971 -0.910035,0.907971 a 0.89969323,0.89969799 0 0 1 -0.903829,-0.895562 c 0,-0.496384 0.397106,-0.89556 0.899693,-0.89556 0.502587,0 0.901761,0.413653 0.901761,0.910039"
     id="path29"
     inkscape:connector-curvature="0"
     style="fill:#ffffff;fill-opacity:1;stroke-width:2.06826568" /><path
     d="m 23.953764,18.278926 -0.146849,-0.192349 c -0.04341,-0.05791 -0.09101,-0.111687 -0.136503,-0.165462 l -0.132371,-0.171666 a 15.030048,15.030127 0 0 0 -0.304034,-0.341266 l -0.07032,-0.0848 -0.0848,-0.09928 -0.128234,-0.128232 -0.04138,-0.05791 a 10.227547,10.227601 0 0 0 -3.739415,-2.372306 l -0.213031,-0.0786 0.04343,-0.07446 A 3.8200767,3.8200969 0 0 0 18.886516,11.428798 3.8573054,3.8573258 0 0 0 16.584542,9.38121 C 15.959932,9.176458 15.420116,9.077181 14.965099,9.091659 14.936139,8.992379 14.874089,8.541498 15.434594,7.34397 L 14.253617,6.709011 13.980607,7.089573 C 13.668305,7.521848 13.366338,7.937569 13.085055,8.349156 A 1.7580212,1.7580305 0 0 0 11.906147,7.798995 L 10.58246,7.716265 h -0.01035 l -0.09928,-0.002 a 1.7766355,1.7766449 0 0 0 -1.7724997,1.66289 l -0.08273,1.327829 v 0.002 a 1.7787039,1.7787133 0 0 0 1.6628817,1.875923 l 0.9514,0.05791 c -0.06205,0.794216 0.06619,1.534657 0.382628,2.184095 a 10.603971,10.604027 0 0 0 -3.4664057,2.343351 c -3.1313454,3.168592 -3.1313454,6.637083 -3.1313454,9.420976 v 1.685641 l 1.2368194,-1.319557 c 0.248191,0.879015 0.616342,1.710459 1.081701,2.477789 h 1.609106 a 8.6515326,8.6515783 0 0 1 -1.59256,-3.640156 l 1.813864,-1.917288 -0.932785,2.928671 1.648404,-1.193391 c 2.9121087,-2.119979 6.3888547,-2.601886 10.3330277,-1.449858 1.712519,0.510862 3.373334,0.04137 4.239932,-1.193393 l 0.09721,-0.157188 c 0.0848,0.483974 0.132371,0.951404 0.132371,1.420901 0,1.478815 -0.241985,3.495379 -1.307141,5.22859 h 1.53465 c 0.738371,-1.476745 1.123067,-3.253391 1.123067,-5.216181 0,-2.084817 -0.738371,-4.188248 -2.059987,-5.944211 z M 12.576262,12.574634 c 0.115823,-0.947268 0.548089,-1.846966 1.164431,-2.81285 a 1.2864579,1.2864647 0 0 0 1.216137,0.709418 c 0.206826,-0.0062 0.574976,0.02482 1.168567,0.219237 0.676321,0.225442 1.218205,0.70528 1.524308,1.350581 a 2.5687793,2.5687929 0 0 1 -0.68873,3.087929 l -0.386765,-0.475703 -0.002,-0.002 a 1.3836661,1.3836734 0 0 0 -2.455025,0.812831 c -1.13755,-0.510869 -1.706322,-1.549141 -1.542929,-2.870767 z m 4.078609,4.839754 -0.492246,0.403313 a 0.21716733,0.21716848 0 0 1 -0.306102,-0.03103 l -0.113754,-0.126163 a 0.21716733,0.21716848 0 0 1 0.02896,-0.318515 l 0.483968,-0.397105 -1.009311,-1.230622 a 0.29369296,0.29369451 0 0 1 0.04137,-0.413655 0.2812834,0.28128489 0 0 1 0.186143,-0.06619 c 0.0848,0 0.169597,0.02896 0.227508,0.09928 l 2.812834,3.454014 a 0.29369296,0.29369451 0 0 1 -0.04137,0.411585 c -0.04343,0.02689 -0.08687,0.04137 -0.128233,0.05584 h -0.07239 A 0.29576122,0.29576278 0 0 1 18.044739,19.141385 L 17.790343,18.814598 16.79551,19.62536 a 0.26887384,0.26887526 0 0 1 -0.14271,0.0455 0.22130385,0.22130502 0 0 1 -0.169597,-0.0848 L 16.028186,19.0359 a 0.23371342,0.23371466 0 0 1 0.04137,-0.318515 l 0.994834,-0.81283 -0.411584,-0.50259 z M 11.49663,11.319193 10.363224,11.248873 A 0.43847118,0.4384735 0 0 1 9.9495723,10.785579 l 0.08687,-1.32783 a 0.43640292,0.43640523 0 0 1 0.434335,-0.413654 h 0.01447 l 1.323687,0.08687 a 0.44053944,0.44054177 0 0 1 0.297829,0.144779 0.50672377,0.50672645 0 0 1 0.113755,0.318513 l -0.01447,0.09514 c -0.312308,0.53775 -0.554294,1.075501 -0.740437,1.627729 z m 11.865611,10.877039 c -0.537749,0.761124 -1.598767,1.021725 -2.77147,0.678392 -3.681504,-1.079637 -7.005198,-0.856264 -9.91524,0.665984 l 1.549128,-4.854233 -5.0134637,5.315457 a 8.7528778,8.7529241 0 0 1 5.4540027,-7.873908 4.5253535,4.5253774 0 0 0 2.041372,0.891424 1.3071405,1.3071474 0 0 0 0.198553,1.334036 l 0.07032,0.0848 a 1.3154135,1.3154205 0 0 0 0.20062,1.303012 l 0.44054,0.55016 a 1.3236866,1.3236936 0 0 0 1.861434,0.186145 l 0.268874,-0.219238 a 1.3092087,1.3092156 0 0 0 0.539816,0.107551 c 0.09928,0 0.198553,0 0.312308,-0.02689 a 1.3464375,1.3464446 0 0 0 0.554293,-0.268877 1.3919392,1.3919466 0 0 0 0.198553,-1.948311 l -1.561536,-1.962787 c 0.136505,-0.103413 0.264736,-0.22751 0.384697,-0.355742 0.128231,0.03929 0.256463,0.07239 0.380559,0.113754 0.252327,0.09514 0.504656,0.186144 0.752847,0.2999 0.9514,0.426063 1.851092,1.044477 2.624621,1.799395 l 0.0848,0.0848 0.171666,0.171666 0.103413,0.113755 0.227509,0.254398 0.122027,0.144779 c 0.04138,0.0517 0.08273,0.09721 0.124096,0.155119 l 0.113752,0.140643 0.113758,0.148916 c 0.794211,1.094116 0.936921,2.217187 0.382626,2.998993 z"
     id="path31"
     inkscape:connector-curvature="0"
     style="fill:#ffffff;fill-opacity:1;stroke-width:2.06826568" /><path
     d="m 11.455663,10.569333 -0.792143,-0.0455 0.04964,-0.790081 0.790075,0.04758 z"
     id="path33"
     inkscape:connector-curvature="0"
     style="fill:#ffffff;fill-opacity:1;stroke-width:2.06826568" /></svg>