<svg xmlns="http://www.w3.org/2000/svg" viewBox="0 0 7344 7344" width="12" height="12"><path d="M7343.663 1383.869c-270.288 119.766-560.303 200.99-865.018 237.253 311.135-186.316 549.3-481.838 662.179-832.895-291.851 172.54-614 297.827-957.258 365.744-274.871-293.231-665.85-475.875-1099.511-475.875-831.971 0-1506.545 674.574-1506.545 1506.09 0 117.93 13.307 233.113 39.01 343.256-1251.857-62.877-2361.916-662.647-3104.863-1574.018-129.87 222.11-203.75 480.915-203.75 757.178 0 522.685 266.16 983.873 669.99 1253.693-246.89-8.256-479.091-76.173-682.374-189.064v18.815c0 729.64 519.469 1338.59 1208.262 1477.183-126.198 33.958-259.272 52.774-396.942 52.774-97.28 0-191.356-9.636-283.595-27.995 191.811 598.857 747.998 1034.342 1406.973 1046.282-515.34 403.83-1165.136 643.831-1870.909 643.831-121.603 0-241.381-7.344-359.312-20.651 666.774 428.153 1458.367 677.79 2309.154 677.79 2771.253 0 4286.066-2295.39 4286.066-4286.066l-5.052-195.028c295.98-211.106 552.036-476.343 753.495-778.297z" fill="#010002"/></svg>