<svg xmlns="http://www.w3.org/2000/svg" viewBox="-12.058 -7.197 12 12" width="12" height="12"><path d="M-.058-1.216c0 3.353-2.644 6.019-5.991 6.019a5.99 5.99 0 0 1-6.009-6.019c0-3.314 2.68-5.98 6.009-5.98a5.955 5.955 0 0 1 5.99 5.98zM-8.952.322a9.57 9.57 0 0 1-.056-2.5c-.85-.167-1.35-.296-1.738-.463a5.21 5.21 0 0 0-.204 1.425c0 .24 0 .482.038.686.24.278.85.648 1.96.852zm1.017 2.981c-.426-.592-.703-1.353-.887-2.24-.741-.168-1.405-.372-1.85-.612.278.685.629 1.295 1.165 1.796.444.48.999.815 1.572 1.055zm-2.532-6.592c.165.148.443.167 1.533.462.203-1.184.556-2.165 1.11-2.907-.629.297-1.184.556-1.682 1.093a4.18 4.18 0 0 0-.961 1.352zM-8.286.45A12.742 12.742 0 0 0-6.42.637v-2.612a21.77 21.77 0 0 1-1.96-.13c0 .334-.017.611-.017.945 0 .538.037 1.112.111 1.611zm0-3.185c.61.055 1.239.093 1.866.111v-3.445h-.036c-.833.334-1.534 1.63-1.83 3.333zm1.866 6.408v-2.39a25.443 25.443 0 0 1-1.702-.11c.112.48.278.907.5 1.296.278.666.702 1.204 1.202 1.204zm.702-9.74v3.444a31.262 31.262 0 0 0 1.885-.11c-.24-1.335-.774-2.501-1.405-3.075-.165-.111-.35-.26-.48-.26zM-3.848.47c.092-.5.11-1.075.11-1.63 0-.333 0-.61-.018-.926a30.894 30.894 0 0 1-1.96.112V.638A15.235 15.235 0 0 0-3.849.47zm-.15.704c-.572.054-1.145.092-1.719.11v2.39c.963 0 1.48-1.667 1.72-2.5zm-.294-6.927c.554.723.906 1.742 1.091 2.946.997-.186 1.405-.352 1.552-.464-.518-1.147-1.498-2.075-2.644-2.482zM-1.5.526c-.481.221-1.11.406-1.794.555-.204.888-.462 1.61-.906 2.222.573-.241 1.146-.575 1.59-1.056.517-.482.869-1.075 1.11-1.723zM-3.072-1.16c0 .5-.037 1.036-.093 1.5 1.923-.315 1.996-.76 1.996-1.556 0-.462-.073-.963-.221-1.407a6.109 6.109 0 0 1-1.72.444c.038.353.038.648.038 1.02z"/></svg>