<svg xmlns="http://www.w3.org/2000/svg" width="12" height="12"><path d="M11.066 3.287c.011-.55-.109-1.106-.207-1.655a3.154 3.154 0 0 0-.17-.548.305.305 0 0 0-.338-.191 2.338 2.338 0 0 0-.25.063c-.815.268-1.57.661-2.297 1.117a.625.625 0 0 1-.356.075c-.283-.021-.561-.091-.843-.104a9.454 9.454 0 0 0-2.083.109.458.458 0 0 1-.301-.051c-.792-.513-1.615-.95-2.542-1.197-.139-.037-.283-.018-.317.038a.41.41 0 0 0-.052.107c-.1.351-.218.7-.277 1.06-.069.429-.136.87-.103 1.298.021.269-.054.435-.2.623-.493.633-.716 1.362-.73 2.16-.01.684.08 1.35.288 2.002.318 1.002.934 1.752 1.86 2.241.761.401 1.591.556 2.44.586.766.027 1.533.004 2.3.009.768.004 1.526-.065 2.26-.304.736-.24 1.373-.626 1.866-1.235.713-.878.936-1.912.982-3.007.035-.838-.137-1.626-.627-2.31-.198-.278-.31-.517-.303-.885zM9.588 9.704c-.33.286-.733.42-1.146.518-.808.195-1.632.243-2.458.207a8.829 8.829 0 0 1-2.42-.203c-.586-.138-1.122-.37-1.495-.873-.593-.8-.745-2.326.236-3.157a1.44 1.44 0 0 1 .858-.368c.365-.023.73-.069 1.091-.064.919.01 1.835.057 2.752.063.419.003.84-.094 1.256-.069.378.022.775.092 1.119.245.571.253.879.767.972 1.369.138.894-.044 1.71-.765 2.333z"/><ellipse cx="8.093" cy="7.96" rx=".874" ry="1.168"/><ellipse cx="3.923" cy="7.96" rx=".874" ry="1.168"/></svg>