<svg xmlns="http://www.w3.org/2000/svg" width="32" height="32"><path d="M20.963 3.677c-1.482-.482-3.42 1.831-4.946 1.831-1.541 0-3.477-2.308-4.943-1.835C9.62 4.14 9.4 7.139 8.138 8.053c-1.22.882-4.144.14-5.076 1.42-.933 1.281.67 3.837.205 5.268C2.785 16.223-.001 17.352 0 18.88c0 1.541 2.792 2.675 3.264 4.141.469 1.454-1.137 4.008-.224 5.27.883 1.219 3.333-.115 4.295 1.143 1.61 0 16.042.027 17.576.027 1.219-.882 3.095.138 4.027-1.143.933-1.28-.67-3.836-.205-5.267.482-1.482 3.268-2.611 3.267-4.138 0-1.541-2.792-2.675-3.265-4.142-.468-1.453 1.138-4.007.225-5.269-.883-1.219-3.796-.499-5.077-1.432-1.28-.932-1.49-3.926-2.92-4.392z" fill="#33a0ff"/><path d="M14.32 26.31a.904.904 0 0 1-.904.901.91.91 0 0 1-.91-.901c0-.499.4-.904.896-.904s.895.411.895.91m5.6 0a.916.916 0 0 1-.91.908.9.9 0 0 1-.905-.896c0-.496.397-.895.9-.895s.902.413.902.91" fill="#fff"/><path d="M23.954 18.279l-.147-.192c-.043-.058-.091-.112-.137-.166l-.132-.172a15.03 15.03 0 0 0-.304-.34l-.07-.086-.085-.099-.128-.128-.042-.058a10.228 10.228 0 0 0-3.74-2.372l-.212-.079.043-.074a3.82 3.82 0 0 0-.113-3.084 3.857 3.857 0 0 0-2.302-2.048c-.625-.205-1.165-.304-1.62-.29-.029-.099-.09-.55.47-1.747l-1.181-.635-.273.38c-.313.433-.615.849-.896 1.26a1.758 1.758 0 0 0-1.179-.55l-1.324-.083h-.01l-.1-.002A1.777 1.777 0 0 0 8.7 9.377l-.082 1.328v.002a1.779 1.779 0 0 0 1.662 1.876l.952.058c-.062.794.066 1.534.383 2.184a10.604 10.604 0 0 0-3.467 2.343c-3.131 3.169-3.131 6.637-3.131 9.421v1.686l1.237-1.32c.248.88.616 1.71 1.081 2.478h1.61a8.652 8.652 0 0 1-1.593-3.64l1.814-1.917-.933 2.928 1.648-1.193c2.912-2.12 6.39-2.602 10.333-1.45 1.713.511 3.374.041 4.24-1.193l.097-.157c.085.483.133.95.133 1.42 0 1.48-.242 3.496-1.307 5.229h1.534c.739-1.477 1.123-3.253 1.123-5.216 0-2.085-.738-4.188-2.06-5.944zm-11.378-5.704c.116-.948.548-1.847 1.165-2.813a1.286 1.286 0 0 0 1.216.71c.207-.007.575.024 1.168.218a2.575 2.575 0 0 1 1.525 1.351 2.569 2.569 0 0 1-.689 3.088l-.387-.476-.002-.002a1.384 1.384 0 0 0-2.455.813c-1.137-.51-1.706-1.55-1.543-2.87zm4.079 4.84l-.492.403a.217.217 0 0 1-.306-.031l-.114-.126a.217.217 0 0 1 .029-.319l.484-.397-1.01-1.23a.294.294 0 0 1 .042-.414.281.281 0 0 1 .186-.067c.085 0 .17.03.227.1l2.813 3.454a.294.294 0 0 1-.041.411.609.609 0 0 1-.128.056h-.073a.296.296 0 0 1-.227-.114l-.255-.326-.994.81a.269.269 0 0 1-.143.046.221.221 0 0 1-.17-.085l-.455-.55a.234.234 0 0 1 .042-.319l.994-.812-.411-.503zm-5.158-6.096l-1.134-.07a.438.438 0 0 1-.413-.463l.086-1.328a.436.436 0 0 1 .435-.414h.014l1.324.087a.44.44 0 0 1 .298.145.507.507 0 0 1 .114.318l-.015.095a8.841 8.841 0 0 0-.74 1.628zm11.865 10.877c-.538.761-1.599 1.022-2.771.679-3.682-1.08-7.005-.857-9.915.666l1.549-4.855-5.014 5.316a8.753 8.753 0 0 1 5.454-7.874 4.525 4.525 0 0 0 2.042.891 1.307 1.307 0 0 0 .198 1.334l.07.085a1.315 1.315 0 0 0 .201 1.303l.44.55a1.324 1.324 0 0 0 1.862.187l.269-.22a1.31 1.31 0 0 0 .54.108c.099 0 .198 0 .312-.027a1.346 1.346 0 0 0 .554-.269 1.392 1.392 0 0 0 .199-1.948l-1.562-1.963c.137-.103.265-.228.385-.356.128.04.257.073.38.114.253.095.505.186.753.3a9.147 9.147 0 0 1 2.625 1.8l.085.084.172.172.103.113.227.255.122.145c.042.051.083.097.125.155l.113.14.114.15c.794 1.093.937 2.217.383 2.998z" fill="#fff"/><path d="M11.456 10.57l-.792-.046.05-.79.79.047z" fill="#fff"/></svg>