<svg xmlns="http://www.w3.org/2000/svg" width="12" height="12"><g clip-rule="evenodd" fill-rule="evenodd"><path d="M0 5.686c.069-.193.11-.401.21-.577a1.474 1.474 0 0 1 2.09-.501c.067.042.11.04.176.002.851-.49 1.777-.749 2.75-.843a4.36 4.36 0 0 1 .397-.025c.084 0 .12-.032.147-.112.29-.83.584-1.66.877-2.489.01-.033.024-.065.04-.109l.92.22c.42.1.842.197 1.26.302.078.02.11 0 .149-.062a1.235 1.235 0 0 1 1.45-.512c.54.184.886.706.843 1.279a1.25 1.25 0 0 1-1.128 1.138c-.637.047-1.2-.355-1.324-.96-.027-.126-.076-.174-.199-.202-.501-.112-1-.236-1.513-.358l-.654 1.854c.271.036.537.064.8.107a6.421 6.421 0 0 1 2.214.779c.068.039.111.038.177-.005a1.49 1.49 0 0 1 1.756 2.405c-.033.027-.065.082-.061.12.065.783-.188 1.459-.682 2.053-.578.693-1.323 1.148-2.166 1.439-1.855.64-3.698.603-5.511-.17-.735-.313-1.376-.767-1.86-1.415-.424-.571-.636-1.208-.56-1.928.003-.026-.005-.066-.023-.08-.322-.254-.497-.592-.573-.987L0 6.04zm5.783 4.664c1.134.002 2.002-.162 2.799-.496.623-.262 1.183-.616 1.607-1.154.625-.791.643-1.722.051-2.537-.3-.415-.697-.723-1.14-.97-.802-.447-1.668-.666-2.579-.729-1.078-.076-2.125.057-3.127.474-.624.26-1.182.616-1.61 1.151-.624.784-.646 1.727-.057 2.538.305.422.707.735 1.16.984a6.179 6.179 0 0 0 2.896.739zm4.278-8.72a.53.53 0 0 0-.527.53.53.53 0 1 0 .527-.53zm1.073 4.652c.2-.256.18-.654-.036-.915-.214-.258-.588-.361-.854-.23.367.326.672.695.89 1.145zM.843 6.272c.22-.452.523-.817.888-1.139-.258-.12-.607-.026-.82.214a.767.767 0 0 0-.07.923z"/><path d="M5.98 9.813c-.52-.025-1.024-.098-1.487-.337a2.664 2.664 0 0 1-.491-.333.346.346 0 0 1-.033-.527c.142-.145.356-.138.524.011.25.225.553.33.875.39.571.104 1.137.081 1.681-.131a2.333 2.333 0 0 0 .49-.286c.167-.118.378-.118.51.026a.353.353 0 0 1-.033.513 2.36 2.36 0 0 1-1.123.545c-.3.062-.607.087-.911.13zm2.765-3.041a.976.976 0 0 1-1.948 0 .977.977 0 0 1 .97-.97.97.97 0 0 1 .978.97zm-5.401 0a.97.97 0 0 1 .99-.97.978.978 0 0 1 .957.995.976.976 0 0 1-1 .95.968.968 0 0 1-.949-.975z"/></g></svg>